<mxfile host="app.diagrams.net" modified="2021-06-06T13:50:27.820Z" agent="5.0 (Windows NT 10.0; Win64; x64) AppleWebKit/537.36 (KHTML, like Gecko) Chrome/88.0.4324.150 Safari/537.36" etag="m2TFp1isezsn-nVPuC3F" version="14.6.13" type="github">
  <diagram id="Ijfy7Kx-KEOetB3Wqyad" name="Page-1">
    <mxGraphModel dx="1102" dy="633" grid="1" gridSize="10" guides="1" tooltips="1" connect="1" arrows="1" fold="1" page="1" pageScale="1" pageWidth="850" pageHeight="1100" math="0" shadow="0">
      <root>
        <mxCell id="0" />
        <mxCell id="1" parent="0" />
        <mxCell id="_udvASaIi87xiB8DKFrE-3" value="" style="edgeStyle=orthogonalEdgeStyle;rounded=0;orthogonalLoop=1;jettySize=auto;html=1;" edge="1" parent="1" source="_udvASaIi87xiB8DKFrE-1" target="_udvASaIi87xiB8DKFrE-2">
          <mxGeometry relative="1" as="geometry" />
        </mxCell>
        <mxCell id="_udvASaIi87xiB8DKFrE-1" value="AMF" style="rounded=0;whiteSpace=wrap;html=1;fillColor=#dae8fc;strokeColor=#6c8ebf;" vertex="1" parent="1">
          <mxGeometry x="180" y="160" width="120" height="60" as="geometry" />
        </mxCell>
        <mxCell id="_udvASaIi87xiB8DKFrE-5" value="" style="edgeStyle=orthogonalEdgeStyle;rounded=0;orthogonalLoop=1;jettySize=auto;html=1;" edge="1" parent="1" source="_udvASaIi87xiB8DKFrE-2" target="_udvASaIi87xiB8DKFrE-4">
          <mxGeometry relative="1" as="geometry">
            <Array as="points">
              <mxPoint x="600" y="190" />
              <mxPoint x="600" y="190" />
            </Array>
          </mxGeometry>
        </mxCell>
        <mxCell id="_udvASaIi87xiB8DKFrE-7" value="" style="edgeStyle=orthogonalEdgeStyle;rounded=0;orthogonalLoop=1;jettySize=auto;html=1;" edge="1" parent="1" source="_udvASaIi87xiB8DKFrE-2" target="_udvASaIi87xiB8DKFrE-6">
          <mxGeometry relative="1" as="geometry" />
        </mxCell>
        <mxCell id="_udvASaIi87xiB8DKFrE-2" value="SMF" style="rounded=0;whiteSpace=wrap;html=1;fillColor=#dae8fc;strokeColor=#6c8ebf;" vertex="1" parent="1">
          <mxGeometry x="400" y="160" width="120" height="60" as="geometry" />
        </mxCell>
        <mxCell id="_udvASaIi87xiB8DKFrE-4" value="PCF" style="rounded=0;whiteSpace=wrap;html=1;fillColor=#dae8fc;strokeColor=#6c8ebf;" vertex="1" parent="1">
          <mxGeometry x="710" y="160" width="120" height="60" as="geometry" />
        </mxCell>
        <mxCell id="_udvASaIi87xiB8DKFrE-6" value="UDF(UDG)" style="whiteSpace=wrap;html=1;rounded=0;strokeColor=#6c8ebf;fillColor=#dae8fc;" vertex="1" parent="1">
          <mxGeometry x="400" y="300" width="120" height="60" as="geometry" />
        </mxCell>
        <mxCell id="_udvASaIi87xiB8DKFrE-10" value="Restricted Zone" style="text;html=1;strokeColor=#6F0000;fillColor=#a20025;align=center;verticalAlign=middle;whiteSpace=wrap;rounded=0;fontColor=#ffffff;" vertex="1" parent="1">
          <mxGeometry x="760" y="220" width="70" height="30" as="geometry" />
        </mxCell>
        <mxCell id="_udvASaIi87xiB8DKFrE-12" value="" style="edgeStyle=orthogonalEdgeStyle;rounded=0;orthogonalLoop=1;jettySize=auto;html=1;" edge="1" parent="1" source="_udvASaIi87xiB8DKFrE-11" target="_udvASaIi87xiB8DKFrE-4">
          <mxGeometry relative="1" as="geometry">
            <Array as="points">
              <mxPoint x="650" y="180" />
              <mxPoint x="650" y="180" />
            </Array>
          </mxGeometry>
        </mxCell>
        <mxCell id="_udvASaIi87xiB8DKFrE-13" style="edgeStyle=orthogonalEdgeStyle;rounded=0;orthogonalLoop=1;jettySize=auto;html=1;" edge="1" parent="1" source="_udvASaIi87xiB8DKFrE-11" target="_udvASaIi87xiB8DKFrE-4">
          <mxGeometry relative="1" as="geometry">
            <Array as="points">
              <mxPoint x="735" y="170" />
              <mxPoint x="735" y="170" />
            </Array>
          </mxGeometry>
        </mxCell>
        <mxCell id="_udvASaIi87xiB8DKFrE-14" style="edgeStyle=orthogonalEdgeStyle;rounded=0;orthogonalLoop=1;jettySize=auto;html=1;" edge="1" parent="1" source="_udvASaIi87xiB8DKFrE-11">
          <mxGeometry relative="1" as="geometry">
            <mxPoint x="520" y="180" as="targetPoint" />
            <Array as="points">
              <mxPoint x="735" y="180" />
              <mxPoint x="520" y="180" />
            </Array>
          </mxGeometry>
        </mxCell>
        <mxCell id="_udvASaIi87xiB8DKFrE-11" value="Allowed zone" style="text;html=1;strokeColor=#82b366;fillColor=#d5e8d4;align=center;verticalAlign=middle;whiteSpace=wrap;rounded=0;" vertex="1" parent="1">
          <mxGeometry x="760" y="130" width="70" height="30" as="geometry" />
        </mxCell>
        <mxCell id="_udvASaIi87xiB8DKFrE-15" style="edgeStyle=orthogonalEdgeStyle;rounded=0;orthogonalLoop=1;jettySize=auto;html=1;exitX=0.5;exitY=0;exitDx=0;exitDy=0;entryX=1;entryY=0.75;entryDx=0;entryDy=0;" edge="1" parent="1" source="_udvASaIi87xiB8DKFrE-10" target="_udvASaIi87xiB8DKFrE-2">
          <mxGeometry relative="1" as="geometry">
            <Array as="points">
              <mxPoint x="795" y="205" />
            </Array>
          </mxGeometry>
        </mxCell>
        <mxCell id="_udvASaIi87xiB8DKFrE-18" value="highspeed rules" style="text;html=1;strokeColor=none;fillColor=none;align=center;verticalAlign=middle;whiteSpace=wrap;rounded=0;" vertex="1" parent="1">
          <mxGeometry x="570" y="150" width="80" height="20" as="geometry" />
        </mxCell>
        <mxCell id="_udvASaIi87xiB8DKFrE-19" value="service restriction rules" style="text;html=1;strokeColor=none;fillColor=none;align=center;verticalAlign=middle;whiteSpace=wrap;rounded=0;" vertex="1" parent="1">
          <mxGeometry x="570" y="210" width="90" height="20" as="geometry" />
        </mxCell>
      </root>
    </mxGraphModel>
  </diagram>
</mxfile>
